<svg xmlns="http://www.w3.org/2000/svg" enable-background="new 0 0 24 24" viewBox="0 0 24 24"><path fill="#90b2f2" d="M12,3c-4.96,0-9,4.04-9,9c0,4.96,4.04,9,9,9s9-4.04,9-9C21,7.04,16.96,3,12,3z M14.5,12.5h-2v2
	c0,0.28-0.22,0.5-0.5,0.5s-0.5-0.22-0.5-0.5v-2h-2C9.22,12.5,9,12.28,9,12c0-0.28,0.22-0.5,0.5-0.5h2v-2C11.5,9.22,11.72,9,12,9
	s0.5,0.22,0.5,0.5v2h2c0.28,0,0.5,0.22,0.5,0.5C15,12.28,14.78,12.5,14.5,12.5z"/><path fill="#3071f1" d="M15,12c0,0.28-0.22,0.5-0.5,0.5h-2v2c0,0.28-0.22,0.5-0.5,0.5s-0.5-0.22-0.5-0.5v-2h-2C9.22,12.5,9,12.28,9,12
	c0-0.28,0.22-0.5,0.5-0.5h2v-2C11.5,9.22,11.72,9,12,9s0.5,0.22,0.5,0.5v2h2C14.78,11.5,15,11.72,15,12z"/></svg>